<?xml version="1.0" encoding="iso-8859-1"?>
<!-- Generator: Adobe Illustrator 19.0.0, SVG Export Plug-In . SVG Version: 6.00 Build 0)  -->
<svg xmlns="http://www.w3.org/2000/svg" xmlns:xlink="http://www.w3.org/1999/xlink" version="1.1" id="Capa_1" x="0px" y="0px" viewBox="0 0 60 60" style="enable-background:new 0 0 60 60;" xml:space="preserve" width="512px" height="512px">
<g>
	<path d="M56.281,2H3.719C1.668,2,0,3.668,0,5.719v48.563C0,56.332,1.668,58,3.719,58h52.563C58.332,58,60,56.332,60,54.281V5.719   C60,3.668,58.332,2,56.281,2z M58,54.281C58,55.229,57.229,56,56.281,56H3.719C2.771,56,2,55.229,2,54.281V5.719   C2,4.771,2.771,4,3.719,4h52.563C57.229,4,58,4.771,58,5.719V54.281z" fill="#494e6b"/>
	<path d="M53,8H7C6.447,8,6,8.447,6,9v10c0,0.553,0.447,1,1,1h46c0.553,0,1-0.447,1-1V9C54,8.447,53.553,8,53,8z M52,18H8v-8h44V18z   " fill="#494e6b"/>
	<path d="M10,24c-2.206,0-4,1.794-4,4s1.794,4,4,4s4-1.794,4-4S12.206,24,10,24z M10,30c-1.103,0-2-0.897-2-2s0.897-2,2-2   s2,0.897,2,2S11.103,30,10,30z" fill="#494e6b"/>
	<path d="M20,24c-2.206,0-4,1.794-4,4s1.794,4,4,4s4-1.794,4-4S22.206,24,20,24z M20,30c-1.103,0-2-0.897-2-2s0.897-2,2-2   s2,0.897,2,2S21.103,30,20,30z" fill="#494e6b"/>
	<path d="M30,24c-2.206,0-4,1.794-4,4s1.794,4,4,4s4-1.794,4-4S32.206,24,30,24z M30,30c-1.103,0-2-0.897-2-2s0.897-2,2-2   s2,0.897,2,2S31.103,30,30,30z" fill="#494e6b"/>
	<path d="M10,34c-2.206,0-4,1.794-4,4s1.794,4,4,4s4-1.794,4-4S12.206,34,10,34z M10,40c-1.103,0-2-0.897-2-2s0.897-2,2-2   s2,0.897,2,2S11.103,40,10,40z" fill="#494e6b"/>
	<path d="M20,34c-2.206,0-4,1.794-4,4s1.794,4,4,4s4-1.794,4-4S22.206,34,20,34z M20,40c-1.103,0-2-0.897-2-2s0.897-2,2-2   s2,0.897,2,2S21.103,40,20,40z" fill="#494e6b"/>
	<path d="M30,34c-2.206,0-4,1.794-4,4s1.794,4,4,4s4-1.794,4-4S32.206,34,30,34z M30,40c-1.103,0-2-0.897-2-2s0.897-2,2-2   s2,0.897,2,2S31.103,40,30,40z" fill="#494e6b"/>
	<path d="M10,44c-2.206,0-4,1.794-4,4s1.794,4,4,4s4-1.794,4-4S12.206,44,10,44z M10,50c-1.103,0-2-0.897-2-2s0.897-2,2-2   s2,0.897,2,2S11.103,50,10,50z" fill="#494e6b"/>
	<path d="M20,44c-2.206,0-4,1.794-4,4s1.794,4,4,4s4-1.794,4-4S22.206,44,20,44z M20,50c-1.103,0-2-0.897-2-2s0.897-2,2-2   s2,0.897,2,2S21.103,50,20,50z" fill="#494e6b"/>
	<path d="M30,44c-2.206,0-4,1.794-4,4s1.794,4,4,4s4-1.794,4-4S32.206,44,30,44z M30,50c-1.103,0-2-0.897-2-2s0.897-2,2-2   s2,0.897,2,2S31.103,50,30,50z" fill="#494e6b"/>
	<path d="M52,35H38c-0.553,0-1,0.447-1,1v14c0,0.553,0.447,1,1,1h14c0.553,0,1-0.447,1-1V36C53,35.447,52.553,35,52,35z M51,49H39   V37h12V49z" fill="#494e6b"/>
	<path d="M52,24H38c-0.553,0-1,0.447-1,1v6c0,0.553,0.447,1,1,1h14c0.553,0,1-0.447,1-1v-6C53,24.447,52.553,24,52,24z M51,30H39v-4   h12V30z" fill="#494e6b"/>
	<path d="M44.293,16.707C44.488,16.902,44.744,17,45,17s0.512-0.098,0.707-0.293L47,15.414l1.293,1.293   C48.488,16.902,48.744,17,49,17s0.512-0.098,0.707-0.293c0.391-0.391,0.391-1.023,0-1.414L48.414,14l1.293-1.293   c0.391-0.391,0.391-1.023,0-1.414s-1.023-0.391-1.414,0L47,12.586l-1.293-1.293c-0.391-0.391-1.023-0.391-1.414,0   s-0.391,1.023,0,1.414L45.586,14l-1.293,1.293C43.902,15.684,43.902,16.316,44.293,16.707z" fill="#494e6b"/>
	<path d="M36.293,16.707C36.488,16.902,36.744,17,37,17s0.512-0.098,0.707-0.293L39,15.414l1.293,1.293   C40.488,16.902,40.744,17,41,17s0.512-0.098,0.707-0.293c0.391-0.391,0.391-1.023,0-1.414L40.414,14l1.293-1.293   c0.391-0.391,0.391-1.023,0-1.414s-1.023-0.391-1.414,0L39,12.586l-1.293-1.293c-0.391-0.391-1.023-0.391-1.414,0   s-0.391,1.023,0,1.414L37.586,14l-1.293,1.293C35.902,15.684,35.902,16.316,36.293,16.707z" fill="#494e6b"/>
	<path d="M28.293,16.707C28.488,16.902,28.744,17,29,17s0.512-0.098,0.707-0.293L31,15.414l1.293,1.293   C32.488,16.902,32.744,17,33,17s0.512-0.098,0.707-0.293c0.391-0.391,0.391-1.023,0-1.414L32.414,14l1.293-1.293   c0.391-0.391,0.391-1.023,0-1.414s-1.023-0.391-1.414,0L31,12.586l-1.293-1.293c-0.391-0.391-1.023-0.391-1.414,0   s-0.391,1.023,0,1.414L29.586,14l-1.293,1.293C27.902,15.684,27.902,16.316,28.293,16.707z" fill="#494e6b"/>
	<path d="M20.293,16.707C20.488,16.902,20.744,17,21,17s0.512-0.098,0.707-0.293L23,15.414l1.293,1.293   C24.488,16.902,24.744,17,25,17s0.512-0.098,0.707-0.293c0.391-0.391,0.391-1.023,0-1.414L24.414,14l1.293-1.293   c0.391-0.391,0.391-1.023,0-1.414s-1.023-0.391-1.414,0L23,12.586l-1.293-1.293c-0.391-0.391-1.023-0.391-1.414,0   s-0.391,1.023,0,1.414L21.586,14l-1.293,1.293C19.902,15.684,19.902,16.316,20.293,16.707z" fill="#494e6b"/>
</g>
<g>
</g>
<g>
</g>
<g>
</g>
<g>
</g>
<g>
</g>
<g>
</g>
<g>
</g>
<g>
</g>
<g>
</g>
<g>
</g>
<g>
</g>
<g>
</g>
<g>
</g>
<g>
</g>
<g>
</g>
</svg>
