<?xml version="1.0" encoding="iso-8859-1"?>
<!-- Generator: Adobe Illustrator 19.0.0, SVG Export Plug-In . SVG Version: 6.00 Build 0)  -->
<svg xmlns="http://www.w3.org/2000/svg" xmlns:xlink="http://www.w3.org/1999/xlink" version="1.1" id="Capa_1" x="0px" y="0px" viewBox="0 0 336.25 336.25" style="enable-background:new 0 0 336.25 336.25;" xml:space="preserve" width="512px" height="512px">
<g>
	<path d="M160.914,210.903V37.818C160.914,16.965,143.948,0,123.095,0h-0.612c-20.854,0-37.819,16.965-37.819,37.818v173.085   c-18.841,12.666-30.376,34.061-30.376,56.846c0,37.771,30.729,68.501,68.501,68.501s68.501-30.729,68.501-68.501   C191.29,244.965,179.754,223.569,160.914,210.903z M122.482,15h0.612c12.583,0,22.819,10.236,22.819,22.818v97.055h-46.25V37.818   C99.664,25.236,109.9,15,122.482,15z M122.789,321.25c-29.5,0-53.501-24-53.501-53.501c0-18.932,10.212-36.642,26.651-46.218   l3.725-2.17v-69.488h46.25v69.488l3.725,2.17c16.439,9.576,26.651,27.286,26.651,46.218   C176.29,297.25,152.289,321.25,122.789,321.25z" fill="#494e6b"/>
	<rect x="216.875" width="65.088" height="15" fill="#494e6b"/>
	<rect x="216.875" y="53.542" width="27.044" height="15" fill="#494e6b"/>
	<rect x="216.875" y="107.083" width="65.088" height="15" fill="#494e6b"/>
	<rect x="216.875" y="160.625" width="27.044" height="15" fill="#494e6b"/>
	<rect x="216.875" y="214.167" width="65.088" height="15" fill="#494e6b"/>
	<rect x="216.875" y="267.708" width="27.044" height="15" fill="#494e6b"/>
	<rect x="216.875" y="321.25" width="65.088" height="15" fill="#494e6b"/>
</g>
<g>
</g>
<g>
</g>
<g>
</g>
<g>
</g>
<g>
</g>
<g>
</g>
<g>
</g>
<g>
</g>
<g>
</g>
<g>
</g>
<g>
</g>
<g>
</g>
<g>
</g>
<g>
</g>
<g>
</g>
</svg>
