<svg xmlns="http://www.w3.org/2000/svg" viewBox="0 0 50 50" width="500" height="500" style="fill: rgb(73, 78, 107);">
    <path d="M 23.75 2 C 12.802 2 6 8.82025 6 19.78125 C 6 21.34225 6.2135 22.88425 6.4375 24.53125 C 7.0415 28.97325 7.67 33.5775 4 38.5625 C 3.838 38.7825 3.7655 39.0425 3.8125 39.3125 C 3.8595 39.5825 4.022 39.81675 4.25 39.96875 C 4.417 40.07975 8.404 42.6815 17.5 43.6875 C 19.803 46.4655 22.45 48 25 48 C 27.563 48 30.22525 46.4735 32.53125 43.6875 C 41.62525 42.6705 45.85425 40.11 46.03125 40 C 46.27225 39.851 46.41875 39.5915 46.46875 39.3125 C 46.51875 39.0335 46.45625 38.75525 46.28125 38.53125 C 42.55425 33.74225 43.05375 29.66675 43.59375 25.34375 C 43.78675 23.80075 44 22.1945 44 20.5625 C 44 14.0275 41.078 6.40925 32.875 6.15625 C 29.401 2.72025 26.009 2 23.75 2 z M 31.84375 17.34375 C 33.32875 18.92175 36 22.53125 36 28.28125 C 36 35.95425 31.2355 42.063 31.1875 42.125 C 31.1795 42.135 31.1955 42.14625 31.1875 42.15625 C 29.2185 44.62725 27.023 46 25 46 C 22.974 46 20.75925 44.622 18.78125 42.125 C 18.77325 42.115 18.759 42.10375 18.75 42.09375 C 18.703 42.04975 14 37.572 14 31 C 14 25.996 18.29675 24.94525 22.09375 24.03125 C 22.87875 23.84225 23.61125 23.67675 24.28125 23.46875 C 28.77125 22.07675 30.92075 19.12475 31.84375 17.34375 z M 19.5 28 C 18.671573 28 18 28.671573 18 29.5 C 18 30.328427 18.671573 31 19.5 31 C 20.328427 31 21 30.328427 21 29.5 C 21 28.671573 20.328427 28 19.5 28 z M 30.5 28 C 29.671573 28 29 28.671573 29 29.5 C 29 30.328427 29.671573 31 30.5 31 C 31.328427 31 32 30.328427 32 29.5 C 32 28.671573 31.328427 28 30.5 28 z"/>
</svg>