<svg xmlns="http://www.w3.org/2000/svg" viewBox="0 0 50 50" width="500" height="500" style="fill: rgb(73, 78, 107);">
    <path d="M 23.75 2 C 18.468351 2 14.006362 3.6163872 10.875 6.6875 C 7.7436377 9.7586128 6 14.248642 6 19.78125 C 6 22.825304 6.7693224 25.844604 6.875 28.9375 C 6.9806776 32.030396 6.504463 35.161658 4 38.5625 A 1.0001 1.0001 0 0 0 4.25 39.96875 C 4.25 39.96875 5.3696633 40.72215 7.59375 41.53125 C 9.7496799 42.315556 13.049136 43.190601 17.53125 43.6875 C 17.542162 43.68871 17.551574 43.686295 17.5625 43.6875 C 19.818726 46.384733 22.391031 48 25 48 C 27.615508 48 30.206513 46.365886 32.46875 43.65625 C 36.973929 43.154406 40.341722 42.309682 42.5625 41.53125 C 44.847635 40.730259 46.03125 40 46.03125 40 A 1.0001 1.0001 0 0 0 46.28125 38.53125 C 43.730475 35.253107 43.205186 32.437587 43.25 29.5625 C 43.294814 26.687413 44 23.755744 44 20.5625 C 44 17.342339 43.352841 13.843165 41.5625 11.03125 C 39.832985 8.314868 36.896639 6.3515517 32.84375 6.21875 C 31.635564 4.9919309 28.498989 2 23.75 2 z M 23.75 4 C 27.821869 4 30.735497 6.8285294 31.71875 7.84375 A 1.0001 1.0001 0 0 0 32.4375 8.15625 C 36.110215 8.15625 38.377591 9.741915 39.875 12.09375 C 41.372409 14.445585 42 17.623661 42 20.5625 C 42 23.440256 41.299436 26.359587 41.25 29.53125 C 41.20538 32.393966 41.847776 35.482959 44.03125 38.71875 C 43.61697 38.940444 43.390791 39.104635 41.90625 39.625 C 40.115183 40.252809 37.500418 40.967435 34.03125 41.46875 C 35.574807 38.944766 38 34.115759 38 28.28125 C 38 20.626437 33.610785 16.20018 32.40625 15.125 C 32.389674 15.110204 32.359096 15.076017 32.34375 15.0625 A 1.0001 1.0001 0 0 0 31.6875 14.625 A 1.0001 1.0001 0 0 0 31.65625 14.625 A 1.0001 1.0001 0 0 0 31.34375 14.625 A 1.0001 1.0001 0 0 0 31.28125 14.625 A 1.0001 1.0001 0 0 0 31.0625 14.71875 A 1.0001 1.0001 0 0 0 30.90625 14.8125 A 1.0001 1.0001 0 0 0 30.78125 14.90625 A 1.0001 1.0001 0 0 0 30.75 14.96875 A 1.0001 1.0001 0 0 0 30.6875 15 A 1.0001 1.0001 0 0 0 30.6875 15.03125 A 1.0001 1.0001 0 0 0 30.65625 15.0625 A 1.0001 1.0001 0 0 0 30.625 15.125 A 1.0001 1.0001 0 0 0 30.59375 15.15625 A 1.0001 1.0001 0 0 0 30.59375 15.21875 A 1.0001 1.0001 0 0 0 30.5625 15.25 A 1.0001 1.0001 0 0 0 30.5625 15.3125 A 1.0001 1.0001 0 0 0 30.53125 15.34375 C 30.53125 15.34375 29.346364 19.818079 23.71875 21.5625 C 21.916774 22.120918 19.062206 22.515449 16.59375 23.71875 C 14.125294 24.922051 12 27.191272 12 31 C 12 35.623919 14.003427 39.257783 15.5625 41.40625 C 12.361118 40.918876 9.9299462 40.256029 8.28125 39.65625 C 6.8302031 39.128374 6.5991866 38.936637 6.21875 38.71875 C 8.4026702 35.294187 8.9796323 31.937302 8.875 28.875 C 8.7599276 25.507146 8 22.466196 8 19.78125 C 8 14.660858 9.5473623 10.744387 12.25 8.09375 C 14.952638 5.4431128 18.869649 4 23.75 4 z M 31.84375 17.3125 C 33.315242 18.868576 36 22.475163 36 28.28125 C 36 35.838274 31.479422 41.774069 31.28125 42.03125 A 1.0001 1.0001 0 0 0 31.21875 42.125 A 1.0004882 1.0004882 0 0 0 31.15625 42.21875 C 29.081512 44.808078 26.879534 46 25 46 C 23.166875 46 21.001713 44.844755 18.96875 42.375 A 1.0059637 1.0059637 0 0 0 18.875 42.25 C 18.860397 42.231912 18.85834 42.205724 18.84375 42.1875 A 1.0059637 1.0059637 0 0 0 18.78125 42.125 A 1.0001 1.0001 0 0 0 18.75 42.09375 C 18.75 42.09375 18.667571 41.97965 18.65625 41.96875 A 1.0001 1.0001 0 0 0 18.5625 41.90625 C 18.05955 41.412391 14 37.243365 14 31 C 14 27.875728 15.407706 26.504699 17.46875 25.5 C 19.529794 24.495301 22.201226 24.113332 24.28125 23.46875 C 28.741288 22.086248 30.905729 19.088235 31.84375 17.3125 z M 19.5 28 C 18.671573 28 18 28.671573 18 29.5 C 18 30.328427 18.671573 31 19.5 31 C 20.328427 31 21 30.328427 21 29.5 C 21 28.671573 20.328427 28 19.5 28 z M 30.5 28 C 29.671573 28 29 28.671573 29 29.5 C 29 30.328427 29.671573 31 30.5 31 C 31.328427 31 32 30.328427 32 29.5 C 32 28.671573 31.328427 28 30.5 28 z"/>
</svg>