<svg xmlns="http://www.w3.org/2000/svg" viewBox="0 0 50 50" width="500" height="500" style="fill: rgb(73, 78, 107);">
    <path d="M 24.71875 2 C 19.673599 2 15.685301 3.4980531 13 6.25 C 10.314699 9.0019469 9 12.927473 9 17.59375 C 9 19.528953 9.8607951 23.264776 10.5625 25.46875 C 10.270073 25.717987 9.972145 25.879295 9.6875 26.3125 C 9.2062296 27.044951 8.8546522 28.075801 9 29.3125 C 9.4211254 32.885802 11.663233 34.163454 12.40625 34.53125 C 12.692645 36.202283 13.554288 38.264895 14.96875 40.375 C 16.484034 42.635511 18.577949 44.808067 21.125 46.03125 C 21.17201 46.05383 21.20266 46.1031 21.25 46.125 C 22.16755 47.2208 23.46514 48 25 48 C 26.53596 48 27.832258 47.221878 28.75 46.125 C 28.79718 46.10306 28.82815 46.05387 28.875 46.03125 C 31.41364 44.80575 33.46649 42.63508 34.96875 40.375 C 36.368937 38.268484 37.213781 36.196765 37.5 34.53125 C 38.233699 34.181967 40.54379 32.941357 40.96875 29.34375 C 41.114655 28.102936 40.7355 27.051622 40.25 26.3125 C 39.962853 25.87535 39.669663 25.721729 39.375 25.46875 C 40.076712 23.23837 41 19.785315 41 16 C 41 14.259898 40.645291 11.883151 39.46875 9.8125 C 38.364397 7.8688956 36.362676 6.2581215 33.53125 6.0625 C 32.246333 4.112709 29.470323 2 24.71875 2 z M 24.71875 4 C 29.214362 4 31.368366 6.0810504 32.125 7.46875 A 1.0001 1.0001 0 0 0 33 8 C 35.443071 8 36.790541 9.1789006 37.71875 10.8125 C 38.646959 12.446099 39 14.557102 39 16 C 39 19.707222 37.991693 23.356923 37.3125 25.4375 A 1.0001 1.0001 0 0 0 37.75 26.59375 C 37.922337 26.700666 38.3145 27.012372 38.59375 27.4375 C 38.873 27.862628 39.056845 28.375814 38.96875 29.125 C 38.587869 32.349448 36.34375 32.96875 36.34375 32.96875 A 1.0001 1.0001 0 0 0 35.65625 33.8125 C 35.540298 34.917365 34.701514 37.160293 33.3125 39.25 C 31.923486 41.339707 30.011565 43.333388 27.90625 44.3125 A 1.0001 1.0001 0 0 0 27.5 44.65625 C 26.960493 45.461753 26.047658 46 25 46 C 23.953105 46 23.039513 45.461011 22.5 44.65625 A 1.0001 1.0001 0 0 0 22.09375 44.3125 C 19.978756 43.333974 18.057749 41.340767 16.65625 39.25 C 15.254751 37.159233 14.396285 34.91272 14.28125 33.8125 A 1.0001 1.0001 0 0 0 13.625 33 C 13.625 33 11.380566 32.322903 11 29.09375 C 10.91135 28.339449 11.10327 27.819799 11.375 27.40625 C 11.64673 26.992701 12.006996 26.705929 12.1875 26.59375 A 1.0001 1.0001 0 0 0 12.625 25.40625 C 12.019894 23.661208 11 18.874195 11 17.59375 C 11 13.301027 12.187051 9.9313031 14.4375 7.625 C 16.687949 5.3186969 20.060901 4 24.71875 4 z M 32.3125 11.625 A 1.0001 1.0001 0 0 0 32.21875 11.65625 A 1.0001 1.0001 0 0 0 32.15625 11.6875 A 1.0001 1.0001 0 0 0 31.9375 11.78125 A 1.0001 1.0001 0 0 0 31.875 11.8125 A 1.0001 1.0001 0 0 0 31.875 11.84375 A 1.0001 1.0001 0 0 0 31.78125 11.90625 A 1.0001 1.0001 0 0 0 31.71875 11.96875 A 1.0001 1.0001 0 0 0 31.6875 12.03125 A 1.0001 1.0001 0 0 0 31.5625 12.21875 C 31.561948 12.219885 31.563403 12.248177 31.5625 12.25 A 1.0001 1.0001 0 0 0 31.53125 12.3125 C 31.449661 12.46982 31.05591 13.163718 30 14.03125 C 28.819397 15.001229 26.945341 16 24 16 C 22.125125 16 19.774901 16.01746 17.75 16.75 C 16.73755 17.116269 15.792819 17.683687 15.09375 18.5625 C 14.394681 19.441313 14 20.609456 14 22 A 1.0001 1.0001 0 1 0 16 22 C 16 20.973544 16.249069 20.324375 16.65625 19.8125 C 17.063431 19.300625 17.66495 18.904481 18.4375 18.625 C 19.982599 18.066038 22.154875 18 24 18 C 27.404659 18 29.799353 16.811271 31.28125 15.59375 C 31.77809 15.185548 32.153109 14.782944 32.46875 14.40625 C 33.437252 15.962923 35 18.906583 35 22 A 1.0001 1.0001 0 1 0 37 22 C 37 17.030964 33.992419 12.960597 33.46875 12.28125 A 1.0001 1.0001 0 0 0 33.46875 12.25 C 33.444742 12.218985 33.385557 12.107 33.375 12.09375 A 1.0001 1.0001 0 0 0 33.3125 12.03125 C 33.311634 12.030178 33.28125 12 33.28125 12 A 1.0001 1.0001 0 0 0 33.25 11.9375 A 1.0001 1.0001 0 0 0 33.21875 11.9375 A 1.0001 1.0001 0 0 0 32.9375 11.71875 A 1.0001 1.0001 0 0 0 32.90625 11.6875 A 1.0001 1.0001 0 0 0 32.84375 11.65625 A 1.0001 1.0001 0 0 0 32.8125 11.65625 A 1.0001 1.0001 0 0 0 32.75 11.625 A 1.0001 1.0001 0 0 0 32.6875 11.625 A 1.0001 1.0001 0 0 0 32.65625 11.625 A 1.0001 1.0001 0 0 0 32.59375 11.625 A 1.0001 1.0001 0 0 0 32.5625 11.625 A 1.0001 1.0001 0 0 0 32.5 11.625 A 1.0001 1.0001 0 0 0 32.46875 11.625 A 1.0001 1.0001 0 0 0 32.40625 11.625 A 1.0001 1.0001 0 0 0 32.3125 11.625 z M 19.5 27 C 18.671573 27 18 27.671573 18 28.5 C 18 29.328427 18.671573 30 19.5 30 C 20.328427 30 21 29.328427 21 28.5 C 21 27.671573 20.328427 27 19.5 27 z M 30.5 27 C 29.671573 27 29 27.671573 29 28.5 C 29 29.328427 29.671573 30 30.5 30 C 31.328427 30 32 29.328427 32 28.5 C 32 27.671573 31.328427 27 30.5 27 z"/>
</svg>